<svg width="50" height="34" viewBox="0 0 50 34" fill="none" xmlns="http://www.w3.org/2000/svg">
<path d="M2.94531 14.7327C1.71819 14.7327 0.723404 15.7275 0.723404 16.9546C0.723404 18.1817 1.71819 19.1765 2.94531 19.1765L2.94531 14.7327ZM48.4051 18.5257C49.2728 17.658 49.2728 16.2512 48.4051 15.3835L34.2649 1.24333C33.3972 0.375617 31.9904 0.375617 31.1227 1.24333C30.255 2.11103 30.255 3.51787 31.1227 4.38558L43.6917 16.9546L31.1227 29.5236C30.255 30.3913 30.255 31.7981 31.1227 32.6659C31.9904 33.5336 33.3972 33.5336 34.2649 32.6659L48.4051 18.5257ZM2.94531 19.1765L46.8339 19.1765L46.834 14.7327L2.94531 14.7327L2.94531 19.1765Z" fill="#189CD8"/>
</svg>
